<svg xmlns="http://www.w3.org/2000/svg" xmlns:xlink="http://www.w3.org/1999/xlink" width="500" zoomAndPan="magnify" viewBox="0 0 375 374.999991" height="500" preserveAspectRatio="xMidYMid meet" version="1.0"><path fill="#141515" d="M 154.585938 209.433594 C 152.675781 210.785156 151.550781 211.574219 151.382812 214.390625 C 150.878906 221.261719 160.320312 225.144531 163.300781 218.277344 L 163.746094 217.148438 L 164.03125 218.386719 C 164.085938 220.921875 161.78125 222.949219 159.476562 223.566406 C 153.96875 225.089844 149.246094 220.976562 149.472656 215.402344 C 149.582031 212.867188 151.777344 208.480469 154.585938 209.433594 Z M 194.496094 180.941406 C 206.078125 192.429688 212.710938 212.8125 211.925781 229.027344 C 211.304688 241.644531 206.414062 259.714844 196.410156 268.160156 C 195.003906 269.398438 195.117188 269.230469 193.488281 270.078125 C 196.128906 267.542969 197.644531 266.078125 199.671875 262.980469 C 211.585938 245.078125 212.09375 217.882812 204.164062 198.398438 C 201.246094 191.25 198.320312 187.363281 194.496094 180.941406 Z M 214.566406 223.0625 C 214.339844 225.707031 215.519531 225.761719 217.996094 224.523438 C 219.0625 223.960938 224.121094 220.921875 224.460938 219.796875 C 224.460938 219.738281 224.796875 217.261719 224.796875 216.925781 C 224.402344 216.359375 221.535156 218.105469 221.199219 218.277344 C 221.984375 217.207031 222.546875 216.246094 223.953125 215.851562 C 226.652344 215.179688 226.035156 217.992188 225.976562 219.738281 C 225.863281 222.554688 220.695312 224.976562 218.558594 225.761719 C 214.175781 227.398438 212.824219 224.695312 214.566406 223.0625 Z M 212.09375 245.863281 C 214.175781 243.332031 218.839844 241.191406 221.480469 239.386719 C 222.4375 238.714844 222.15625 238.824219 221.875 238.433594 C 222.210938 238.207031 222.546875 238.320312 222.71875 238.65625 C 223.503906 240.683594 214.960938 245.582031 212.09375 245.863281 Z M 208.609375 254.761719 C 208.777344 252 217.828125 247.722656 219.679688 245.355469 C 219.90625 245.078125 219.851562 245.1875 220.300781 244.964844 C 220.246094 245.527344 220.300781 245.242188 220.191406 245.636719 C 219.289062 248.792969 211.644531 253.015625 208.609375 254.761719 Z M 103.261719 119.515625 C 111.472656 118.726562 120.296875 116.699219 128.449219 116.082031 C 130.921875 115.910156 133.449219 115.972656 136.035156 115.796875 C 140.421875 115.519531 148.515625 115.460938 152.789062 116.136719 C 149.640625 116.644531 146.097656 116.699219 142.953125 116.816406 C 139.125 116.925781 135.8125 117.492188 132.210938 117.714844 C 127.152344 117.996094 122.207031 118.503906 117.148438 119.011719 C 113.214844 119.351562 106.972656 120.359375 103.261719 119.515625 Z M 163.746094 119.515625 C 168.976562 116.027344 177.070312 115.183594 183.199219 114.789062 C 194.160156 114.113281 206.472656 115.460938 216.8125 119.289062 C 219.289062 120.191406 221.984375 121.261719 223.671875 123.34375 C 221.929688 122.78125 223.449219 123.289062 221.648438 122.554688 C 215.242188 119.964844 205.800781 118.726562 198.882812 118.222656 C 190.902344 117.605469 182.75 117.039062 174.769531 117.769531 C 170.722656 118.109375 167.628906 118.957031 163.746094 119.515625 Z M 224.402344 123.90625 C 228.847656 128.695312 235.03125 141.023438 237.390625 147.105469 C 241.042969 156.566406 243.347656 169.796875 243.964844 179.933594 C 244.078125 181.960938 244.078125 181.28125 243.910156 183.3125 C 243.066406 180.941406 242.785156 179.3125 242.335938 176.890625 C 239.636719 163.773438 235.984375 149.132812 230.476562 136.972656 C 228.902344 133.535156 225.246094 127.117188 224.402344 123.90625 Z M 88.59375 124.980469 C 93.089844 126.667969 90.953125 126.164062 93.933594 124.753906 C 95.675781 123.90625 98.542969 124.132812 100.339844 124.808594 C 100.5625 124.921875 101.242188 125.203125 101.519531 125.257812 C 103.9375 124.640625 105.398438 124.355469 107.535156 124.191406 C 106.242188 123.234375 104.332031 122.050781 103.828125 121.882812 C 101.914062 121.261719 97.472656 121.09375 95.507812 121.769531 C 93.710938 122.445312 91.855469 123.0625 90.222656 124.132812 L 89.828125 124.355469 C 90.671875 122.726562 94.550781 120.867188 96.125 120.417969 C 97.53125 119.964844 102.703125 119.964844 104.105469 120.359375 C 105.570312 120.753906 108.660156 122.613281 109.839844 123.792969 C 110.851562 124.695312 110.515625 125.878906 109.21875 125.9375 C 105.90625 125.9375 104.949219 126.273438 101.855469 126.722656 C 100.679688 126.890625 99.382812 125.652344 98.203125 125.484375 C 92.019531 124.585938 93.144531 129.144531 88.59375 124.980469 Z M 109.167969 124.078125 L 109.28125 124.078125 C 109.21875 124.078125 109.21875 124.078125 109.167969 124.078125 Z M 245.542969 190.125 C 245.316406 189.558594 243.179688 184.605469 244.527344 184.097656 C 248.40625 182.632812 254.648438 185.339844 256.613281 188.773438 C 260.605469 195.640625 257.625 207.292969 249.304688 208.816406 L 247.789062 208.929688 C 251.890625 207.238281 254.476562 205.660156 255.996094 201.214844 C 257.34375 197.214844 256.839844 190.066406 253.242188 187.421875 C 250.65625 185.5625 248.238281 184.492188 244.976562 185 C 244.921875 185.789062 245.484375 189.050781 245.542969 190.125 Z M 245.03125 184.886719 Z M 248.742188 181.507812 C 256.949219 181.507812 262.179688 187.929688 261.785156 195.863281 C 261.449219 202.621094 259.59375 209.71875 251.835938 210.449219 C 254.308594 209.324219 255.996094 208.648438 257.625 206.285156 C 259.984375 202.847656 260.550781 195.191406 259.535156 191.078125 C 258.078125 184.945312 254.085938 183.3125 248.742188 181.507812 Z M 254.027344 178.808594 C 254.367188 178.808594 254.703125 178.859375 255.042969 178.921875 L 255.042969 178.46875 C 254.421875 170.300781 253.523438 162.589844 252.0625 154.480469 C 250.597656 146.148438 249.304688 137.648438 247 129.480469 C 245.878906 125.429688 244.300781 121.601562 243.234375 117.660156 C 247.902344 123.234375 250.710938 132.917969 252.566406 140.011719 C 255.320312 150.597656 256.445312 161.632812 256.277344 172.558594 C 256.277344 174.691406 256.277344 176.949219 255.828125 179.03125 C 267.460938 181.171875 270.441406 198.511719 262.683594 206.058594 C 261.617188 207.070312 260.71875 207.464844 259.257812 207.6875 L 260.046875 207.183594 C 265.777344 203.296875 266.226562 194.796875 264.261719 188.714844 C 262.628906 183.535156 259.984375 181.507812 255.714844 179.539062 C 255.601562 179.933594 255.488281 180.328125 255.378906 180.71875 C 255.097656 179.648438 255.097656 179.761719 255.097656 179.253906 C 254.757812 179.085938 254.421875 178.972656 254.027344 178.808594 Z M 285.453125 130.550781 C 288.265625 136.070312 288.9375 148.511719 289.441406 154.820312 C 290.285156 166.023438 290.902344 178.355469 290.960938 189.617188 C 291.070312 202.621094 290.457031 217.320312 289.554688 230.324219 C 289.5 231.167969 287.980469 250.089844 286.351562 248.734375 C 286.859375 247.722656 286.96875 244.175781 287.023438 243.046875 C 287.980469 225.257812 287.304688 207.40625 287.195312 189.617188 C 287.136719 176.554688 287.304688 163.773438 286.859375 150.707031 C 286.628906 143.503906 286.128906 137.648438 285.453125 130.550781 Z M 305.742188 142.828125 C 305.742188 142.769531 305.6875 142.714844 305.6875 142.65625 C 305.6875 142.714844 305.742188 142.769531 305.742188 142.828125 Z M 306.308594 142.828125 C 306.363281 142.769531 306.417969 142.769531 306.417969 142.714844 Z M 303.832031 227.621094 L 303.945312 227.621094 Z M 299.617188 172.667969 C 300.796875 170.867188 306.476562 167.261719 309.566406 165.683594 C 308.949219 164.726562 308.273438 163.714844 307.597656 162.757812 C 306.53125 163.265625 304.957031 163.9375 304.171875 164.449219 C 301.921875 165.910156 301.304688 166.53125 298.4375 167.429688 L 298.382812 167.429688 C 298.550781 168.390625 298.71875 169.347656 298.941406 170.300781 C 299.167969 171.148438 299.335938 171.933594 299.617188 172.667969 Z M 301.023438 176.386719 C 304.453125 173.679688 308.949219 171.824219 311.816406 169.121094 L 310.523438 167.207031 C 307.542969 168.671875 304.566406 170.191406 301.585938 171.710938 C 300.125 172.445312 300.683594 172.21875 299.617188 172.667969 C 300.011719 173.964844 300.519531 175.203125 301.023438 176.386719 Z M 332.109375 207.855469 C 329.296875 209.039062 325.980469 210.277344 323.113281 210.222656 C 325.644531 208.757812 328.738281 207.632812 331.605469 206.171875 C 331.492188 205.832031 331.378906 205.496094 331.265625 205.101562 C 328.902344 205.945312 323.566406 207.800781 322.046875 207.6875 C 323.171875 206.566406 328.398438 204.367188 330.648438 203.410156 C 330.363281 202.734375 330.144531 202.117188 329.917969 201.550781 C 326.542969 202.734375 322.554688 203.917969 319.179688 204.875 C 321.257812 202.679688 326.09375 201.160156 329.296875 199.863281 C 329.128906 199.414062 328.957031 199.074219 328.902344 198.792969 C 326.992188 198.625 318.957031 201.382812 316.703125 201.777344 C 318.109375 200.707031 329.074219 195.753906 330.144531 197.835938 C 330.984375 199.355469 335.3125 208.703125 333.34375 209.941406 C 331.828125 210.957031 325.699219 212.867188 322.046875 213.882812 C 321.316406 214.671875 319.851562 215.402344 319.179688 214.671875 C 317.15625 212.417969 314.964844 204.988281 315.414062 202.117188 C 317.324219 205.550781 318.335938 209.433594 319.742188 213.097656 C 319.742188 213.152344 319.96875 213.601562 320.078125 213.824219 C 321.035156 213.714844 321.371094 213.488281 322.160156 213.207031 C 325.53125 211.628906 329.074219 210.449219 332.277344 208.703125 C 332.277344 208.535156 332.222656 208.195312 332.109375 207.855469 Z M 88.085938 134.097656 C 86.570312 136.691406 84.601562 140.96875 89.152344 141.589844 C 96.351562 142.601562 102.816406 132.578125 96.515625 131.398438 C 93.539062 130.835938 92.414062 132.242188 90.277344 133.085938 C 91.742188 130.269531 98.203125 128.695312 100.058594 132.464844 C 102.085938 136.578125 97.753906 141.082031 93.988281 142.488281 C 91.121094 143.558594 85.894531 143.558594 85.332031 139.671875 C 85.050781 137.367188 86.402344 135.449219 88.085938 134.097656 Z M 226.765625 202.058594 C 227.328125 200.539062 229.238281 199.695312 230.757812 199.753906 C 230.644531 199.019531 230.476562 198.285156 230.363281 197.554688 L 230.25 197.101562 C 229.070312 198.285156 227.945312 199.753906 226.3125 199.921875 C 226.484375 200.59375 226.597656 201.328125 226.765625 202.058594 Z M 227.382812 205.773438 C 228.960938 204.253906 229.296875 204.03125 231.207031 203.128906 C 231.09375 202.171875 230.980469 201.214844 230.8125 200.316406 C 230.703125 200.539062 230.585938 200.59375 229.96875 201.101562 C 229.460938 201.496094 227.777344 202.453125 226.878906 202.566406 C 227.046875 203.636719 227.214844 204.707031 227.382812 205.773438 Z M 227.890625 210.507812 C 229.179688 209.039062 229.632812 208.757812 231.597656 208.535156 C 231.542969 207.128906 231.488281 205.71875 231.316406 204.3125 C 230.363281 205.605469 229.238281 206.171875 227.441406 206.285156 C 227.609375 207.6875 227.777344 209.097656 227.890625 210.507812 Z M 228 213.320312 C 229.238281 212.023438 229.96875 212.363281 231.488281 211.628906 C 231.542969 211.574219 231.597656 211.574219 231.597656 211.574219 C 231.652344 210.671875 231.652344 209.828125 231.597656 208.929688 C 230.644531 210.449219 229.855469 211.066406 227.890625 210.785156 C 227.945312 211.628906 228 212.476562 228 213.320312 Z M 212.992188 90.96875 C 205.964844 91.757812 193.316406 91.757812 187.917969 90.859375 C 193.429688 89.902344 206.359375 89.675781 213.273438 90.410156 C 214.566406 88.265625 216.871094 86.859375 220.410156 85.566406 C 222.941406 84.605469 226.148438 83.425781 228.789062 84.210938 C 225.078125 86.070312 216.367188 88.378906 215.578125 93.28125 C 214.734375 98.628906 217.265625 108.820312 219.007812 114 C 219.738281 116.136719 220.46875 117.769531 220.804688 119.964844 C 216.367188 115.746094 212.039062 103.019531 211.925781 97.277344 C 211.871094 94.628906 212.148438 92.605469 212.992188 90.96875 Z M 152.730469 116.363281 C 155.824219 114.84375 156.160156 117.660156 155.488281 120.191406 C 154.585938 123.792969 152.507812 127.796875 151.328125 131.507812 C 150.089844 135.28125 148.6875 137.648438 147.726562 141.644531 C 147.5625 142.378906 147.839844 141.421875 147.503906 142.433594 C 146.769531 139.785156 149.246094 133.929688 149.921875 131.230469 C 151.101562 126.554688 153.070312 124.019531 154.53125 119.855469 C 155.601562 116.699219 155.152344 116.53125 152.730469 116.363281 Z M 228.054688 216.640625 C 228.847656 215.292969 229.910156 215.066406 231.488281 215.066406 C 231.542969 214.21875 231.597656 213.375 231.597656 212.535156 C 230.476562 213.601562 229.574219 214.164062 228.054688 214.164062 C 228.054688 214.953125 228.054688 215.796875 228.054688 216.640625 Z M 228 219.625 C 228.902344 218.835938 229.855469 218.277344 231.207031 218.332031 C 231.261719 217.597656 231.375 216.867188 231.433594 216.078125 C 230.417969 217.148438 229.746094 217.261719 228.054688 217.320312 C 228.054688 218.105469 228 218.835938 228 219.625 Z M 227.71875 223.117188 C 228.394531 222.554688 229.632812 221.992188 230.703125 222.105469 C 230.8125 221.203125 230.925781 220.359375 231.039062 219.515625 C 230.925781 219.625 230.703125 219.796875 230.417969 220.074219 C 229.574219 220.699219 228.789062 220.808594 227.945312 220.527344 C 227.890625 221.371094 227.777344 222.269531 227.71875 223.117188 Z M 227.214844 227.117188 C 227.945312 226.269531 228.730469 226.101562 229.855469 226.269531 C 230.082031 225.3125 230.25 224.410156 230.417969 223.453125 C 229.574219 224.019531 228.566406 224.410156 227.609375 224.300781 C 227.496094 225.144531 227.382812 225.988281 227.269531 226.777344 Z M 226.765625 229.929688 L 227.101562 229.535156 L 229.015625 229.59375 L 227.832031 231.226562 L 226.539062 231 C 226.3125 232.351562 225.976562 233.644531 225.640625 234.996094 C 225.527344 237.53125 225.132812 240.175781 224.402344 242.652344 L 224.574219 242.261719 C 226.652344 237.53125 228.339844 232.632812 229.519531 227.734375 C 228.847656 228.238281 228.167969 228.410156 227.046875 228.183594 C 226.988281 228.746094 226.878906 229.367188 226.765625 229.929688 Z M 56.832031 180.550781 C 55.984375 182.578125 55.089844 184.773438 54.863281 186.574219 C 54.921875 186.460938 54.976562 186.296875 55.089844 186.125 C 55.539062 185.109375 56.324219 182.859375 56.832031 180.550781 Z M 39.742188 193.050781 C 39.683594 193.050781 39.683594 193.050781 39.628906 193.050781 Z M 65.9375 210.671875 C 67.171875 209.941406 68.1875 209.039062 68.804688 208.085938 C 69.027344 207.6875 69.199219 207.351562 69.363281 206.957031 C 68.863281 208.027344 68.132812 208.875 67.117188 209.773438 C 66.78125 210.054688 66.386719 210.335938 65.9375 210.671875 Z M 64.367188 209.996094 C 63.96875 210.109375 63.578125 210.167969 63.183594 210.167969 C 59.417969 210.449219 58.125 209.828125 55.765625 207.972656 C 56.046875 209.660156 56.4375 210.898438 57.113281 211.179688 C 58.796875 212.023438 61.777344 211.347656 64.367188 209.996094 Z M 160.265625 200.03125 C 159.308594 199.074219 159.699219 199.46875 160.152344 200.03125 Z M 121.199219 204.199219 C 117.710938 211.125 116.023438 215.742188 116.699219 223.738281 C 117.9375 238.207031 127.601562 248.457031 140.816406 250.089844 C 136.824219 249.242188 132.886719 247.496094 129.289062 244.851562 C 117.765625 236.234375 114.617188 215.515625 124.285156 204.816406 C 120.972656 211.292969 119.394531 215.628906 120.015625 223.171875 C 121.421875 239.558594 134.40625 250.199219 150.765625 247.832031 C 162.230469 246.144531 168.585938 238.039062 170.15625 228.464844 C 171.28125 219.851562 168.75 210.222656 162.792969 202.90625 C 162.511719 202.566406 162.230469 202.285156 161.949219 202.003906 C 157.621094 197.328125 164.367188 204.648438 159.984375 199.921875 L 160.152344 199.976562 L 159.253906 198.960938 C 161.949219 200.707031 164.3125 203.070312 166.222656 205.773438 C 170.214844 211.234375 172.292969 218.386719 172.238281 224.921875 C 172.238281 225.820312 172.179688 226.71875 172.128906 227.621094 C 170.382812 251.4375 144.242188 259.996094 126.535156 246.820312 C 114.28125 237.644531 110.964844 215.574219 121.199219 204.199219 Z M 92.976562 182.523438 C 87.242188 189.839844 84.039062 194.292969 81 203.296875 C 76.675781 216.023438 76.5625 228.746094 79.824219 241.132812 C 82.351562 247.777344 83.363281 251.550781 87.46875 257.855469 C 97.585938 273.625 116.753906 285.78125 135.472656 287.640625 C 149.191406 288.9375 164.421875 284.660156 175.214844 276.042969 C 179.65625 272.441406 181.90625 269.511719 185.5625 265.230469 C 184.433594 267.316406 184.71875 266.921875 183.3125 268.949219 C 174.320312 281.675781 159.589844 288.375 144.355469 289.839844 C 128.277344 291.359375 113.042969 285.277344 100.734375 275.140625 C 94.046875 269.679688 87.410156 261.742188 83.363281 253.128906 C 78.195312 243.839844 75.550781 231.507812 75.886719 221.203125 C 76.28125 208.195312 82.800781 190.628906 92.976562 182.523438 Z M 213.214844 214.335938 C 213.890625 215.402344 214.175781 215.851562 214.457031 216.867188 C 216.3125 215.292969 222.773438 211.179688 224.292969 210.277344 C 224.066406 208.421875 224.175781 209.15625 223.726562 207.40625 C 222.4375 208.027344 220.246094 209.15625 219.0625 209.265625 C 219.234375 208.648438 223.726562 206.058594 224.121094 206 C 225.191406 205.832031 225.808594 210.167969 225.921875 210.730469 L 225.191406 211.628906 C 224.066406 212.757812 217.996094 216.136719 216.253906 217.035156 C 215.636719 217.320312 214.339844 218.441406 213.890625 217.9375 C 213.609375 217.710938 213.214844 214.730469 213.214844 214.335938 Z M 214.621094 217.375 C 214.621094 217.429688 214.621094 217.488281 214.679688 217.542969 C 214.621094 217.488281 214.621094 217.429688 214.621094 217.375 Z M 211.136719 202.734375 C 213.328125 206.898438 212.65625 206.789062 216.648438 204.144531 C 218.503906 202.90625 219.121094 202.339844 221.144531 201.382812 C 223.167969 200.316406 221.875 196.878906 221.3125 196.933594 C 220.191406 196.992188 218.445312 198.679688 217.039062 198.511719 C 217.433594 198.0625 220.300781 195.976562 221.144531 195.808594 C 223.335938 195.414062 225.304688 200.875 221.984375 202.90625 C 220.300781 203.972656 214.734375 207.015625 213.386719 207.128906 C 211.53125 207.292969 211.082031 203.75 211.136719 202.734375 Z M 206.808594 192.882812 C 209.5625 195.808594 208.886719 195.976562 212.65625 193.558594 C 213.78125 192.824219 216.703125 191.023438 217.488281 190.125 C 217.488281 190.125 217.488281 190.125 217.542969 190.125 C 216.253906 184.832031 215.464844 187.421875 210.238281 189.558594 L 208.269531 190.234375 C 209.734375 189.109375 213.554688 186.125 215.296875 185.671875 C 218.390625 185 219.625 189.730469 219.289062 190.683594 C 218.726562 192.207031 211.925781 195.640625 210.632812 196.035156 C 208.382812 196.710938 207.371094 194.910156 206.808594 192.882812 Z M 201.132812 183.199219 C 201.863281 183.816406 203.210938 185.503906 203.71875 186.011719 C 205.179688 185.28125 207.597656 183.984375 208.777344 183.027344 C 210.742188 181.453125 209.617188 182.070312 212.148438 180.71875 C 212.261719 180.664062 212.375 180.605469 212.429688 180.605469 C 211.753906 179.539062 210.96875 178.242188 210.292969 177.398438 C 208.496094 178.691406 208.214844 178.972656 205.964844 179.761719 C 206.695312 178.859375 206.300781 179.199219 207.257812 178.523438 C 210.464844 176.273438 209.789062 174.640625 212.429688 178.070312 C 214.398438 180.550781 215.40625 180.890625 212.375 182.632812 C 210.183594 183.929688 205.910156 187.027344 203.605469 187.082031 C 202.703125 187.140625 201.246094 183.648438 201.132812 183.199219 Z M 203.828125 186.066406 L 203.886719 186.125 C 203.886719 186.066406 203.828125 186.066406 203.828125 186.066406 Z M 212.710938 181 C 212.710938 181.054688 212.769531 181.171875 212.824219 181.226562 C 212.769531 181.171875 212.769531 181.054688 212.710938 181 Z M 221.480469 156.003906 C 220.355469 155.71875 219.234375 155.441406 218.21875 155.328125 C 215.464844 155.042969 212.601562 156.398438 210.015625 157.75 C 212.207031 158.085938 214.398438 158.480469 216.367188 159.492188 C 216.984375 157.523438 219.289062 156.453125 221.480469 156.003906 Z M 217.714844 159.492188 C 218.054688 158.984375 218.503906 158.480469 218.949219 158.03125 C 218.332031 158.480469 217.882812 158.929688 217.714844 159.492188 Z M 233.398438 176.890625 L 233.453125 176.890625 C 233.398438 176.890625 233.398438 176.890625 233.398438 176.890625 Z M 233.511719 169.007812 Z M 230.703125 170.753906 L 231.152344 171.203125 C 231.542969 171.710938 233.34375 174.355469 234.183594 175.3125 C 234.410156 175.203125 234.519531 175.203125 234.859375 175.089844 C 233.789062 173.34375 232.949219 171.878906 232.441406 169.910156 C 231.992188 170.246094 231.488281 170.527344 230.703125 170.753906 Z M 235.644531 176.214844 C 235.589844 176.273438 235.480469 176.328125 235.421875 176.328125 C 233.960938 177.34375 233.230469 178.859375 232.21875 176.890625 C 231.261719 175.148438 230.25 173.121094 229.40625 171.316406 C 231.316406 173.457031 231.710938 174.242188 233.058594 176.441406 C 233.117188 176.441406 233.171875 176.554688 233.230469 176.664062 L 233.453125 176.441406 C 232.328125 175.148438 231.09375 172.609375 230.363281 170.867188 C 230.25 170.867188 230.191406 170.867188 230.082031 170.925781 C 229.96875 170.925781 229.855469 170.980469 229.746094 170.980469 C 229.6875 170.867188 229.910156 170.695312 230.25 170.527344 C 230.136719 170.359375 230.082031 170.191406 230.027344 170.023438 L 230.417969 170.472656 C 230.925781 170.191406 231.488281 169.910156 231.765625 169.628906 C 234.296875 166.980469 233.453125 168.332031 235.085938 169.964844 C 236.65625 171.484375 237.277344 172.160156 238.289062 174.300781 C 237.109375 175.425781 237.332031 175.371094 236.039062 175.992188 C 235.925781 176.046875 235.757812 176.101562 235.644531 176.214844 Z M 232.613281 169.742188 C 233.398438 170.867188 235.140625 173.230469 235.925781 174.527344 C 236.265625 174.355469 236.601562 174.300781 236.882812 174.300781 C 236.265625 173.625 235.703125 172.160156 235.140625 171.429688 C 234.019531 170.078125 234.296875 170.867188 233.398438 169.066406 C 233.230469 169.179688 233.003906 169.457031 232.613281 169.742188 Z M 234.410156 175.539062 Z M 233.789062 175.597656 C 233.734375 175.597656 233.679688 175.597656 233.679688 175.652344 C 233.679688 175.597656 233.734375 175.597656 233.789062 175.597656 Z M 233.34375 185.449219 L 233.117188 185.5625 C 233.230469 185.671875 233.34375 185.730469 233.453125 185.84375 Z M 241.042969 183.3125 C 241.269531 183.199219 241.492188 183.082031 241.664062 183.027344 C 241.324219 182.523438 240.816406 181.960938 240.59375 181.621094 L 240.257812 181.84375 C 240.761719 182.6875 240.761719 182.632812 241.042969 183.3125 Z M 239.414062 184.210938 C 239.808594 183.929688 240.199219 183.703125 240.59375 183.535156 C 240.480469 183.027344 240.3125 182.464844 240.199219 181.902344 C 237.726562 183.589844 235.308594 184.210938 233.453125 185.339844 C 233.734375 185.671875 233.960938 186.066406 234.128906 186.460938 C 234.296875 186.632812 234.410156 186.800781 234.519531 186.96875 C 235.421875 186.519531 237.839844 185.109375 239.414062 184.210938 Z M 242 183.421875 C 242.054688 183.535156 242.109375 183.648438 242.222656 183.703125 C 242.167969 183.648438 242.109375 183.535156 242 183.421875 Z M 240.421875 181.453125 Z M 231.882812 184.492188 C 233.34375 183.082031 237.164062 181.734375 237.839844 181.453125 C 238.960938 180.941406 239.972656 179.820312 240.875 179.988281 C 240.703125 179.59375 240.875 179.933594 240.085938 177.734375 C 238.566406 173.457031 236.996094 170.695312 234.410156 166.980469 C 230.980469 161.96875 229.070312 160.675781 225.246094 157.1875 C 224.121094 157.296875 222.605469 157.015625 222.097656 157.296875 C 220.582031 158.085938 218.894531 159.210938 217.65625 160.507812 C 217.769531 160.898438 218.054688 161.351562 218.445312 161.804688 C 223.335938 166.980469 229.6875 177.171875 231.882812 184.492188 Z M 62.5625 142.09375 C 62.285156 142.714844 62.003906 143.390625 61.722656 144.011719 C 65.09375 140.238281 69.199219 137.421875 73.976562 134.773438 C 75.605469 131.003906 78.359375 128.132812 82.632812 125.988281 C 86.117188 124.300781 83.925781 125.375 86.0625 122.160156 C 86.511719 121.433594 87.128906 120.8125 87.859375 120.304688 C 80.890625 123.964844 74.878906 128.695312 69.085938 134.324219 C 66.445312 136.972656 64.253906 139.335938 62.5625 142.09375 Z M 144.976562 206.058594 C 139.917969 209.265625 137.160156 212.589844 136.371094 218.671875 C 134.011719 235.785156 155.992188 244.234375 166.222656 231.507812 C 168.75 228.296875 169.261719 225.59375 169.875 221.652344 C 170.328125 228.183594 167.234375 233.757812 161.554688 236.914062 C 146.265625 245.414062 129.179688 229.871094 136.597656 213.824219 C 138.398438 209.941406 140.871094 207.464844 144.976562 206.058594 Z M 189.441406 75.9375 C 189.269531 76.949219 189.496094 77.847656 189.71875 79.542969 L 189.382812 79.59375 C 193.316406 79.878906 196.96875 79.542969 200.960938 79.824219 C 203.773438 80.046875 210.351562 80.21875 213.5 81.117188 C 217.882812 81.453125 222.71875 81.679688 226.539062 80.105469 L 226.933594 79.933594 C 228.730469 78.75 231.152344 77.738281 233.34375 77.847656 C 233.34375 77.234375 233.34375 75.316406 233.34375 75.316406 L 233.34375 75.375 L 233.285156 75.261719 C 231.992188 75.65625 228.730469 76.277344 228.28125 76.386719 C 223.335938 77.457031 221.199219 77.289062 216.140625 77.398438 C 213.441406 77.457031 192.699219 77.457031 189.441406 75.9375 Z M 189.886719 74.359375 C 189.71875 74.808594 189.554688 75.261719 189.496094 75.597656 C 190.28125 75.65625 191.125 75.710938 191.96875 75.710938 C 191.125 75.542969 190.503906 75.261719 190.167969 74.808594 C 190.054688 74.640625 189.945312 74.472656 189.886719 74.359375 Z M 223.5625 245.1875 C 224.175781 244.792969 224.742188 244.457031 225.191406 244.234375 C 227.214844 243.332031 226.878906 244.003906 229.179688 242.429688 C 232.496094 240.121094 236.097656 237.25 238.007812 233.644531 C 238.851562 232.011719 239.355469 231 240.535156 229.59375 C 240.535156 230.15625 240.421875 230.832031 240.257812 231.507812 C 240.875 230.210938 241.378906 228.800781 241.828125 227.398438 C 240.535156 229.3125 236.824219 231.847656 234.972656 233.140625 C 240.199219 226.832031 240.535156 229.871094 243.234375 220.636719 C 245.03125 214.445312 244.976562 197.667969 243.234375 191.078125 C 242.617188 188.828125 241.664062 186.910156 240.929688 184.660156 C 240.59375 184.832031 240.257812 184.945312 239.972656 185.109375 C 239.414062 185.394531 238.738281 185.730469 238.007812 186.066406 C 237.222656 186.632812 236.546875 187.140625 235.871094 187.589844 C 235.589844 187.757812 235.308594 188.039062 234.972656 188.207031 C 236.097656 190.855469 236.824219 193.839844 237.390625 196.371094 C 239.582031 206.285156 240.3125 217.089844 236.601562 226.71875 C 235.421875 229.761719 236.824219 231.957031 233.847656 233.816406 C 232.105469 234.941406 230.703125 235.5625 228.730469 236.914062 C 231.261719 233.984375 231.824219 234.601562 233.789062 232.800781 C 235.589844 231.113281 234.351562 229.253906 235.367188 226.210938 C 237.726562 219.121094 237.671875 212.078125 237.164062 204.707031 C 236.769531 198.90625 235.816406 193.785156 234.296875 188.433594 C 234.019531 188.433594 233.789062 188.320312 233.511719 187.984375 C 232.722656 187.027344 231.765625 186.574219 231.375 185.957031 C 231.152344 185.617188 231.207031 185.222656 231.542969 184.832031 C 231.207031 184.320312 231.488281 184.71875 230.53125 182.859375 C 227.441406 177.058594 223.222656 170.640625 219.34375 165.234375 C 218.332031 163.773438 216.199219 161.914062 216.253906 160.109375 C 215.183594 160 214.003906 159.605469 212.878906 159.550781 C 212.320312 159.492188 210.519531 159.382812 209.28125 159.324219 C 229.460938 175.148438 238.230469 200.820312 230.644531 228.351562 C 229.070312 233.871094 226.820312 239.839844 223.726562 244.738281 C 223.671875 244.90625 223.617188 245.019531 223.5625 245.1875 Z M 303.777344 228.351562 C 303.945312 228.296875 304.226562 228.238281 304.453125 228.183594 L 303.777344 227.960938 Z M 331.265625 215.457031 L 330.476562 216.191406 C 329.1875 217.148438 321.707031 220.585938 319.796875 220.863281 C 319.011719 221.035156 316.480469 220.527344 316.199219 220.1875 C 315.917969 220.246094 315.808594 220.359375 315.695312 220.414062 C 315.582031 222.214844 315.019531 223.738281 314.0625 224.863281 C 313.671875 225.484375 313.167969 226.101562 312.546875 226.664062 C 311.199219 227.902344 310.410156 228.351562 309.566406 228.6875 L 310.355469 228.800781 L 311.140625 228.800781 C 314.0625 228.6875 318.84375 228.859375 321.429688 228.074219 C 322.273438 227.789062 322.886719 227.566406 323.453125 227.398438 C 328.117188 225.199219 331.09375 221.316406 332.390625 215.6875 C 332.445312 215.457031 332.5 215.121094 332.5 214.839844 C 332.164062 215.007812 331.714844 215.234375 331.265625 215.457031 Z M 316.59375 218.78125 C 317.4375 218.835938 318.335938 219.460938 320.300781 218.277344 C 323.339844 216.417969 324.070312 216.640625 327.5 215.742188 L 328.902344 215.402344 C 331.492188 214.164062 333.851562 212.703125 334.976562 210.84375 C 336.15625 208.875 333.515625 202.003906 332.671875 199.921875 C 331.265625 196.261719 330.984375 194.683594 328.902344 191.363281 C 326.824219 191.25 314.910156 195.863281 312.601562 196.597656 C 314.347656 195.304688 324.800781 190.292969 328.566406 189.953125 C 327.835938 189.335938 326.878906 188.65625 326.488281 188.828125 C 326.542969 188.828125 326.488281 188.828125 326.601562 188.828125 C 323.84375 190.011719 322.046875 190.683594 319.121094 191.472656 C 316.703125 192.148438 314.289062 192.9375 311.871094 193.558594 C 314.175781 191.585938 315.808594 191.023438 318.675781 189.953125 C 319.179688 189.730469 321.484375 188.941406 323.507812 188.378906 C 323.394531 188.207031 323.285156 188.039062 323.226562 187.757812 C 322.945312 187.027344 322.4375 185.957031 321.820312 184.832031 L 321.820312 185.394531 C 320.078125 186.179688 312.039062 189.445312 310.582031 189.617188 C 311.816406 188.320312 318.503906 184.832031 321.203125 183.761719 C 320.472656 182.523438 319.628906 181.171875 318.84375 179.820312 C 316.199219 182.015625 311.480469 184.265625 308.273438 184.382812 C 311.308594 182.578125 315.300781 180.832031 317.773438 178.296875 L 317.886719 178.410156 C 317.214844 177.34375 316.59375 176.386719 315.976562 175.484375 C 313.222656 177.34375 307.375 180.605469 305.40625 180.832031 C 307.375 178.859375 312.152344 176.273438 315.019531 174.019531 L 314.402344 173.121094 C 313.839844 172.273438 313.332031 171.429688 312.773438 170.585938 C 309.625 173.0625 304.734375 175.257812 301.304688 176.890625 C 301.472656 177.34375 301.699219 177.847656 301.921875 178.296875 C 301.921875 178.183594 301.921875 178.015625 301.980469 177.511719 C 302.539062 178.410156 302.875 179.539062 303.105469 180.777344 C 303.269531 181.113281 303.441406 181.453125 303.605469 181.789062 C 304.675781 184.152344 305.742188 186.125 307.320312 188.207031 C 309.0625 190.574219 308.21875 189.335938 309.566406 191.472656 C 310.128906 192.320312 310.355469 192.601562 311.03125 193.164062 C 310.242188 193.21875 309.566406 192.375 309.117188 191.8125 C 307.597656 189.953125 308.554688 191.023438 306.53125 188.828125 C 305.40625 187.476562 304.511719 186.179688 303.664062 184.773438 C 303.664062 185.167969 303.71875 185.617188 303.777344 185.957031 C 304.957031 197.78125 305.125 213.433594 303.890625 226.890625 C 304.847656 227.117188 304.171875 227.117188 306.980469 226.605469 C 307.992188 226.382812 308.835938 226.15625 309.566406 225.878906 C 309.90625 225.59375 310.242188 225.257812 310.691406 224.75 C 313.050781 222.214844 313.894531 219.289062 313.894531 215.964844 C 312.152344 211.96875 310.804688 206.285156 310.355469 204.367188 C 309.285156 199.242188 308.273438 198.453125 310.410156 193.726562 C 310.128906 198.453125 309.625 196.542969 311.140625 201.496094 C 312.378906 205.550781 313.390625 209.488281 314.570312 213.546875 C 314.628906 213.769531 314.683594 214.050781 314.796875 214.335938 C 315.132812 214.898438 315.246094 215.347656 315.300781 216.246094 L 315.359375 216.417969 L 315.414062 216.300781 L 315.46875 216.640625 C 315.75 217.429688 316.144531 218.21875 316.59375 218.78125 Z M 70.882812 146.429688 C 71.109375 142.882812 71.671875 139.503906 73.191406 136.355469 C 66.949219 140.800781 62.226562 144.964844 58.125 151.945312 C 55.371094 156.675781 54.527344 159.097656 50.03125 162.53125 C 54.191406 162.871094 60.824219 163.828125 63.519531 165.347656 C 64.476562 162.925781 66.5 159.550781 67.0625 158.703125 C 68.296875 156.734375 69.140625 155.105469 70.210938 153.074219 C 70.265625 152.003906 70.324219 150.9375 70.378906 149.863281 C 70.546875 147.726562 70.492188 148.511719 70.882812 146.429688 Z M 155.9375 145.8125 C 153.910156 146.484375 151.832031 147.046875 150.03125 147.667969 C 159.871094 146.597656 170.101562 147.667969 178.925781 150.371094 C 203.605469 157.972656 220.527344 176.214844 226.089844 199.019531 C 227.160156 197.949219 228.902344 196.429688 230.136719 196.429688 C 223.28125 165.179688 192.417969 144.574219 161.21875 145.472656 C 159.308594 145.527344 157.566406 145.644531 155.9375 145.8125 Z M 161.277344 143.222656 L 162.007812 143.105469 C 161.445312 143.503906 160.769531 143.839844 160.09375 144.234375 C 168.863281 143.671875 177.804688 144.738281 185.617188 147.164062 C 193.597656 149.582031 200.738281 153.132812 206.863281 157.523438 C 207.878906 156.398438 208.15625 156.398438 210.015625 155.328125 C 212.09375 154.144531 214.621094 152.679688 216.984375 152.792969 C 217.601562 152.792969 219.234375 153.132812 220.976562 153.636719 C 220.863281 153.523438 220.804688 153.523438 220.976562 153.636719 L 221.085938 153.636719 L 220.078125 152.90625 C 208.550781 144.066406 189.554688 140.292969 174.992188 140.96875 C 169.484375 141.25 165.773438 142.039062 161.277344 143.222656 Z M 104.332031 164.335938 C 105.570312 163.660156 106.804688 163.207031 108.210938 162.589844 C 108.324219 162.476562 108.433594 162.367188 108.546875 162.25 C 112.933594 158.59375 115.910156 157.238281 121.027344 155.105469 L 121.363281 154.929688 C 121.199219 152.734375 121.027344 149.976562 120.914062 147.164062 C 119.847656 147.5 118.722656 147.839844 117.765625 148.121094 C 113.945312 149.246094 109.785156 149.863281 105.90625 150.484375 C 105.175781 150.597656 104.558594 150.707031 103.882812 150.824219 C 104.558594 153.296875 104.386719 160.054688 104.332031 164.335938 Z M 71.953125 161.351562 C 71.953125 160.339844 71.953125 159.382812 71.953125 158.421875 L 71.839844 158.703125 C 71.898438 159.605469 71.953125 160.449219 71.953125 161.351562 Z M 72.402344 204.875 C 72.402344 201.328125 72.347656 197.667969 72.234375 194.0625 C 72.175781 196.652344 72.121094 199.242188 72.011719 201.890625 C 71.953125 203.183594 71.953125 204.707031 71.898438 206.285156 C 72.066406 205.773438 72.234375 205.324219 72.402344 204.875 Z M 73.359375 209.097656 C 73.136719 210.84375 72.910156 212.308594 72.6875 213.207031 C 71.953125 218.894531 71.839844 224.636719 71.28125 230.265625 L 71.28125 230.550781 C 71.953125 233.535156 72.570312 236.628906 73.410156 239.613281 C 77.855469 255.660156 84.542969 266.867188 97.921875 277 C 119.117188 292.992188 149.582031 296.875 172.632812 282.40625 C 199.78125 265.402344 201.46875 229.816406 188.765625 203.015625 C 186.574219 198.34375 184.097656 194.292969 181.289062 189.953125 C 179.828125 187.757812 180.5 188.941406 179.265625 186.519531 C 181.117188 187.984375 180.667969 187.535156 182.1875 189.222656 C 198.546875 207.351562 205.460938 235.84375 197.703125 259.207031 C 196.015625 264.277344 193.597656 268.949219 190.675781 273.285156 C 195.285156 269.625 200.121094 266.023438 202.480469 264.105469 C 203.265625 263.433594 204.109375 262.757812 205.007812 262.023438 C 204.503906 262.136719 204.054688 262.191406 203.664062 262.191406 C 204.671875 261.066406 207.597656 259.097656 210.183594 257.6875 C 214.398438 254.027344 218.613281 249.863281 221.257812 245.46875 C 222.605469 241.753906 223.726562 237.925781 224.574219 234.097656 C 221.480469 237.589844 215.015625 238.769531 213.835938 236.855469 C 212.878906 235.335938 214.230469 233.535156 215.242188 232.460938 C 214.0625 235.898438 213.78125 237.304688 217.65625 236.234375 C 220.355469 235.503906 225.472656 232.519531 224.628906 229.027344 L 224.574219 228.917969 C 223.839844 228.351562 219.738281 231 219.457031 231.167969 L 217.433594 231.957031 C 218.390625 231.113281 223.898438 225.878906 225.695312 228.015625 C 226.765625 220.359375 226.652344 212.535156 225.191406 204.707031 C 219.007812 170.980469 188.148438 147.667969 154.304688 148.683594 C 150.707031 148.796875 147.671875 149.132812 144.917969 149.582031 C 140.140625 151.386719 135.417969 153.019531 130.695312 154.820312 L 129.796875 155.105469 C 139.746094 153.019531 151.496094 153.976562 160.207031 156.902344 C 168.472656 159.660156 179.039062 165.179688 185.390625 171.089844 C 186.347656 171.992188 186.125 171.710938 186.628906 172.386719 C 185.5625 171.992188 184.269531 171.035156 183.3125 170.359375 C 169.316406 161.292969 152.28125 155.042969 135.417969 156.003906 C 130.019531 156.285156 126.421875 157.296875 121.535156 158.144531 C 117.710938 159.605469 113.945312 161.238281 111.527344 162.925781 C 120.972656 160.054688 131.597656 159.605469 140.195312 161.183594 C 153.519531 163.601562 170.101562 171.375 177.804688 182.917969 C 176.734375 181.902344 175.726562 180.890625 174.710938 179.875 C 159.363281 165.179688 134.800781 158.59375 114.222656 163.488281 C 111.921875 164.050781 109.953125 164.617188 108.152344 165.292969 C 106.074219 166.644531 104.277344 167.546875 101.691406 168.839844 C 100.113281 169.964844 98.484375 171.035156 96.855469 172.273438 C 115.746094 161.183594 140.984375 162.421875 160.09375 174.242188 C 184.269531 189.277344 197.308594 218.21875 193.152344 246.371094 C 192.585938 250.367188 191.746094 254.535156 189.71875 258.082031 C 190 255.773438 189.777344 257.183594 190.226562 254.875 C 195.511719 227.566406 185.726562 198.511719 163.019531 182.015625 C 132.832031 160.054688 89.4375 165.519531 75.101562 202.90625 C 74.878906 203.355469 74.707031 203.859375 74.539062 204.3125 C 74.3125 205.042969 74.144531 205.773438 73.921875 206.566406 C 73.695312 207.40625 73.527344 208.253906 73.359375 209.097656 Z M 99.664062 151.328125 C 93.3125 152.566406 84.601562 152.792969 78.640625 152.511719 C 76 152.398438 74.878906 152.003906 73.636719 153.019531 C 73.636719 153.46875 73.636719 153.976562 73.695312 154.480469 C 74.203125 165.519531 74.707031 175.992188 74.484375 187.027344 C 74.484375 188.152344 74.3125 194.570312 73.976562 200.820312 C 75.832031 195.585938 78.472656 190.460938 80.890625 186.96875 C 81.226562 186.460938 81.566406 186.011719 81.957031 185.503906 C 82.128906 183.027344 83.535156 182.300781 85.164062 180.042969 C 87.46875 176.835938 88.929688 175.425781 91.628906 172.609375 C 94.550781 169.570312 98.429688 167.65625 102.085938 165.746094 L 102.140625 165.796875 L 102.53125 165.519531 C 102.703125 161.855469 103.320312 153.019531 103.882812 150.824219 C 102.367188 150.992188 101.015625 151.214844 99.664062 151.328125 Z M 73.636719 151.441406 C 73.976562 151.273438 74.257812 151.160156 74.652344 150.992188 C 74.765625 150.992188 74.929688 150.9375 75.101562 150.878906 C 74.652344 150.765625 74.203125 150.652344 73.695312 150.484375 Z M 216.757812 257.238281 C 217.152344 257.183594 217.542969 257.125 217.9375 257.125 C 217.542969 257.125 217.152344 257.183594 216.757812 257.238281 Z M 257.34375 102.007812 C 256.390625 102.289062 254.703125 102.683594 254.535156 102.90625 C 254.535156 103.132812 254.421875 103.640625 254.308594 104.3125 C 254.476562 104.484375 254.648438 104.652344 254.871094 104.820312 C 259.367188 108.425781 280.617188 112.535156 285.902344 110.5625 C 288.429688 109.664062 283.765625 107.75 279.828125 106.394531 C 278.3125 106.171875 278.988281 106.285156 277.023438 105.722656 C 273.535156 104.820312 273.644531 104.820312 270.105469 104.371094 C 268.027344 104.144531 260.382812 103.132812 258.46875 102.457031 C 258.019531 102.34375 257.679688 102.175781 257.34375 102.007812 Z M 284.4375 119.351562 C 284.609375 118.5625 284.4375 119.121094 285.167969 117.660156 C 286.015625 115.746094 286.40625 113.886719 286.746094 111.972656 C 285.167969 112.703125 282.695312 112.816406 281.855469 112.816406 C 277.242188 112.929688 259.085938 110.113281 254.199219 105.441406 C 253.804688 107.972656 253.410156 111.351562 253.464844 111.804688 C 253.578125 112.648438 254.757812 113.042969 255.320312 113.4375 L 256.558594 114.335938 C 263.023438 117.378906 276.34375 119.628906 278.480469 119.742188 C 281.40625 119.910156 283.203125 119.855469 284.4375 119.351562 Z M 301.191406 153.355469 C 300.179688 152.339844 299.222656 152.230469 299 151.890625 C 298.941406 151.890625 298.941406 151.890625 298.886719 151.890625 C 298.550781 152.117188 298.382812 152.625 297.933594 153.1875 C 297.933594 157.804688 297.59375 162.140625 298.328125 166.980469 C 299.222656 166.195312 300.066406 165.855469 301.304688 165.011719 C 303.269531 163.660156 300.742188 165.292969 303.382812 163.265625 C 304.113281 162.644531 305.578125 161.855469 306.589844 161.238281 C 306.308594 160.789062 306.027344 160.339844 305.6875 159.886719 C 303.890625 157.238281 302.203125 155.492188 301.191406 153.355469 Z M 301.585938 147.613281 L 301.753906 147.839844 L 301.753906 147.558594 Z M 306.136719 157.074219 C 305.519531 156.566406 304.957031 156.113281 304.453125 155.664062 C 304.566406 155.945312 304.675781 156.226562 304.789062 156.507812 C 305.40625 157.1875 306.082031 158.03125 306.867188 159.042969 C 311.703125 165.40625 320.078125 178.242188 322.945312 185.503906 C 323.113281 185.902344 323.566406 187.476562 323.679688 188.320312 C 325.195312 187.871094 326.488281 187.589844 326.824219 187.699219 C 327.5 187.929688 329.015625 189.109375 329.523438 190.011719 C 329.578125 190.066406 329.636719 190.066406 329.636719 190.066406 C 331.660156 191.136719 335.707031 202.511719 336.269531 205.210938 C 337.394531 210.449219 336.71875 212.363281 333.0625 214.503906 C 332.839844 222.046875 328.511719 227.847656 321.765625 229.984375 C 321.203125 230.210938 320.695312 230.378906 320.191406 230.550781 C 316.929688 231.617188 312.492188 231.453125 308.445312 230.832031 C 307.375 231.113281 306.308594 231.394531 305.40625 231.5625 C 304.566406 231.675781 303.890625 231.730469 303.382812 231.847656 C 303.105469 234.039062 302.765625 236.125 302.375 238.152344 C 301.808594 241.414062 301.414062 244.683594 298.773438 246.765625 C 295.964844 249.074219 290.003906 253.523438 286.746094 254.59375 L 286.859375 254.480469 C 285.113281 255.996094 282.921875 257.070312 281.007812 257.40625 C 278.59375 257.914062 267.914062 257.628906 264.988281 257.628906 C 260.664062 257.6875 256.332031 257.574219 252.0625 257.519531 C 249.8125 257.574219 247.507812 257.6875 245.257812 257.914062 C 236.824219 258.8125 229.855469 258.476562 221.425781 258.082031 C 219.457031 258.023438 216.421875 258.023438 214.398438 257.800781 C 206.921875 265.289062 197.199219 271.539062 189.160156 276.886719 C 188.3125 277.453125 187.246094 278.183594 186.175781 278.914062 C 179.152344 286.742188 169.933594 292.597656 159.476562 295.414062 C 129.570312 303.574219 95.5625 289.160156 79.488281 262.8125 C 74.765625 255.097656 70.097656 240.292969 70.152344 230.15625 C 69.816406 226.042969 69.703125 221.203125 69.816406 217.769531 C 69.875 216.925781 69.929688 216.023438 70.039062 215.179688 C 69.875 212.535156 69.816406 209.828125 69.761719 207.238281 C 68.863281 211.96875 61.382812 214.335938 57.390625 214.953125 C 51.601562 215.910156 48.851562 215.796875 45.25 210.957031 C 41.988281 206.679688 41.429688 200.085938 42.050781 194.910156 C 40.644531 194.796875 39.125 194.570312 38.730469 194.121094 C 37.664062 192.714844 39.460938 184.152344 40.078125 182.183594 L 40.136719 181.902344 C 40.195312 181.621094 40.25 181.339844 40.304688 181 C 40.699219 179.425781 40.921875 177.566406 41.375 175.933594 L 41.375 175.707031 C 42.160156 170.867188 44.183594 166.363281 46.488281 162.082031 C 45.535156 165.855469 44.242188 168.894531 43.394531 172.386719 C 44.015625 171.933594 44.746094 171.597656 45.757812 171.429688 C 44.183594 172.609375 43.453125 173.457031 43 174.355469 C 42.945312 174.863281 42.890625 175.371094 42.835938 175.878906 C 42.496094 178.921875 42.550781 179.253906 41.9375 181.84375 C 41.601562 184.433594 42.214844 184.097656 45.589844 185.957031 C 47.78125 187.25 50.871094 188.378906 53.570312 189.167969 C 53.292969 187.871094 53.515625 185.449219 55.089844 181.960938 C 55.539062 180.941406 56.382812 179.199219 57.226562 177.734375 C 57.28125 176.441406 57.113281 175.425781 56.550781 174.808594 C 56.046875 174.242188 46.488281 171.375 44.914062 170.753906 C 48.117188 170.867188 53.121094 172.21875 56.324219 173.121094 C 57.507812 173.515625 58.238281 174.414062 58.574219 175.597656 C 58.628906 175.484375 58.6875 175.425781 58.742188 175.371094 C 58.742188 175.539062 58.6875 175.707031 58.628906 175.878906 C 58.796875 176.441406 58.851562 177.058594 58.851562 177.679688 L 58.851562 177.621094 C 60.09375 174.46875 60.65625 173.007812 61.609375 169.628906 C 62.113281 174.128906 60.824219 175.539062 59.867188 179.648438 C 59.304688 181.902344 59.640625 182.183594 58.851562 184.660156 C 58.515625 185.617188 55.484375 195.414062 54.808594 195.074219 L 54.695312 195.019531 C 54.753906 194.910156 54.808594 194.910156 54.808594 194.910156 C 55.089844 192.824219 55.652344 190.574219 56.160156 188.488281 C 56.269531 188.09375 56.382812 187.644531 56.4375 187.140625 C 54.921875 190.066406 56.046875 187.476562 55.59375 188.714844 C 55.089844 190.292969 54.191406 190.574219 53.742188 189.671875 C 53.402344 189.730469 53.121094 189.730469 52.558594 189.617188 C 49.691406 188.996094 47.554688 188.601562 44.859375 187.363281 C 43.28125 186.632812 41.9375 186.179688 41.089844 185.449219 C 40.585938 188.265625 39.910156 192.09375 39.96875 193.105469 C 45.027344 193.726562 49.636719 194.796875 54.640625 195.863281 C 54.808594 195.921875 55.707031 195.976562 55.820312 196.035156 C 55.765625 196.710938 45.25 195.191406 44.070312 195.019531 C 43.621094 194.964844 42.890625 194.964844 42.050781 194.910156 C 43.113281 201.382812 43.226562 208.308594 49.128906 212.589844 C 50.816406 213.769531 54.359375 213.9375 58.011719 213.375 C 56.773438 213.261719 55.707031 212.8125 55.089844 211.742188 C 53.570312 208.929688 53.90625 199.527344 54.976562 196.542969 C 55.089844 198.175781 55.089844 203.691406 55.652344 207.519531 C 58.851562 208.480469 59.867188 209.210938 63.914062 208.253906 C 67.738281 207.292969 68.578125 204.3125 69.648438 203.296875 L 69.648438 201.890625 C 69.363281 193.21875 69.199219 185.054688 69.425781 176.328125 C 69.59375 169.628906 69.703125 162.703125 70.039062 155.945312 C 69.816406 156.566406 69.535156 157.238281 69.199219 157.972656 C 67.847656 161.125 66.160156 163.433594 64.367188 166.023438 C 64.476562 166.195312 64.589844 166.363281 64.644531 166.589844 C 65.710938 170.808594 60.597656 190.742188 58.238281 195.304688 C 57.675781 196.371094 56.550781 196.710938 55.425781 197.328125 L 57.449219 195.53125 C 58.628906 193.894531 62.902344 172.667969 63.125 167.769531 L 63.015625 167.882812 C 62.902344 167.714844 62.902344 167.316406 63.015625 166.8125 C 60.429688 165.519531 58.96875 165.011719 56.046875 164.449219 C 52.898438 163.828125 50.085938 163.207031 46.9375 162.308594 C 47.554688 162.308594 48.625 162.367188 49.917969 162.476562 C 51.320312 160.789062 52.222656 159.550781 52.953125 158.367188 C 52.449219 158.984375 51.828125 159.550781 51.097656 160.109375 C 51.941406 158.253906 51.4375 159.382812 52.617188 157.296875 C 54.46875 154.144531 55.3125 151.441406 57.449219 148.34375 C 58.628906 146.597656 59.640625 144.914062 60.765625 143.277344 L 60.933594 142.882812 C 66.277344 131.847656 80.214844 121.488281 91.683594 117.605469 C 93.257812 117.09375 93.820312 116.980469 95.394531 117.09375 C 94.101562 117.492188 93.3125 117.660156 92.078125 118.222656 C 92.75 117.996094 93.371094 117.769531 93.988281 117.605469 C 93.875 117.769531 93.761719 117.941406 93.652344 118.109375 C 96.96875 116.421875 102.757812 115.125 105.792969 114.503906 C 108.433594 114 110.964844 113.828125 113.550781 113.660156 C 114.28125 113.324219 115.125 113.265625 116.136719 113.4375 C 116.585938 113.4375 117.089844 113.378906 117.539062 113.324219 C 118.101562 113.265625 118.667969 113.152344 119.230469 113.097656 C 121.421875 112.253906 120.578125 112.480469 123.445312 112.140625 C 126.871094 111.804688 128.898438 111.746094 132.382812 111.183594 C 135.472656 110.675781 138.003906 110.5625 141.039062 110.167969 C 143.847656 109.832031 146.042969 110.058594 148.742188 109.777344 C 151.777344 109.4375 153.296875 109.214844 156.386719 109.097656 C 158.800781 108.984375 160.941406 108.480469 163.1875 108.367188 C 163.242188 108.085938 163.300781 107.804688 163.355469 107.523438 C 164.535156 101.050781 168.808594 89.335938 174.320312 85.621094 C 176.566406 84.15625 184.769531 80.160156 187.582031 79.59375 C 187.527344 78.472656 188.148438 73.570312 189.832031 74.023438 C 189.945312 73.066406 191.96875 72.726562 192.585938 72.613281 C 196.578125 71.941406 199.78125 71.828125 203.71875 72.613281 C 200.90625 73.179688 198.488281 72.953125 195.625 73.570312 C 195.285156 73.628906 194.21875 73.910156 193.207031 74.136719 C 196.128906 74.640625 200.402344 74.527344 202.875 74.527344 C 203.605469 74.527344 206.472656 74.753906 206.527344 73.855469 L 206.640625 73.910156 C 207.992188 74.867188 201.695312 75.65625 201.636719 75.65625 C 201.246094 75.710938 200.625 75.765625 199.839844 75.828125 C 205.289062 75.828125 210.6875 75.65625 216.140625 75.765625 C 218.785156 75.828125 222.941406 76.105469 225.472656 75.828125 C 228.113281 75.488281 231.039062 74.808594 233.679688 75.039062 C 233.734375 75.039062 233.847656 74.980469 233.902344 74.921875 L 233.902344 75.039062 C 233.847656 75.09375 233.679688 75.148438 233.398438 75.261719 C 233.625 75.710938 234.019531 77.003906 233.960938 77.910156 C 234.746094 78.023438 235.480469 78.246094 236.210938 78.695312 C 238.289062 80.105469 239.972656 81.402344 241.324219 83.144531 C 246.609375 87.085938 250.65625 92.546875 254.253906 98.066406 C 255.378906 99.023438 257.0625 100.65625 259.871094 101.050781 C 262.066406 101.332031 263.863281 101.160156 266.339844 101.613281 C 268.757812 102.007812 271.960938 102.625 274.828125 103.640625 C 281.066406 104.988281 287.304688 107.015625 288.152344 109.4375 C 288.375 110.058594 288.265625 110.617188 287.980469 111.070312 C 288.375 112.421875 288.207031 114.113281 288.035156 115.292969 C 287.980469 115.519531 287.871094 115.859375 287.757812 116.195312 C 289.671875 116.476562 290.566406 117.039062 292.421875 118.222656 C 295.570312 120.136719 299.335938 123.0625 300.683594 126.613281 C 301.527344 128.808594 302.203125 133.253906 302.261719 136.578125 C 306.25 134.324219 311.703125 133.820312 314.628906 136.070312 C 321.484375 141.363281 312.714844 151.945312 311.816406 157.972656 C 311.480469 160.449219 311.816406 161.464844 312.378906 163.320312 C 316.929688 169.964844 322.328125 178.691406 324.464844 184.210938 C 324.6875 184.660156 325.25 186.574219 325.308594 187.308594 C 324.96875 187.027344 324.914062 186.855469 324.746094 186.460938 C 323.621094 183.199219 318.167969 175.148438 315.976562 171.824219 C 313.050781 167.429688 310.183594 162.925781 307.261719 158.59375 C 306.867188 158.085938 306.53125 157.578125 306.136719 157.074219 Z M 302.148438 150.765625 L 302.261719 150.878906 C 302.148438 150.597656 302.089844 150.316406 301.980469 150.035156 C 301.980469 150.089844 301.921875 150.203125 301.863281 150.316406 C 301.980469 150.484375 302.089844 150.597656 302.148438 150.765625 Z M 311.085938 161.40625 L 311.03125 161.351562 L 311.085938 161.464844 Z M 309.34375 149.019531 C 308.835938 152.398438 309.679688 147.558594 308.78125 151.328125 C 308.332031 153.296875 310.074219 156.226562 310.75 158.199219 C 310.859375 155.269531 312.210938 152.625 313.617188 149.078125 C 316.367188 142.261719 316.875 133.875 306.027344 136.40625 C 304.566406 136.742188 303.328125 137.140625 302.316406 137.648438 C 302.316406 138.265625 302.261719 138.828125 302.203125 139.28125 L 301.808594 141.082031 C 301.527344 140.125 301.359375 139.222656 301.191406 138.324219 C 299.335938 139.558594 298.15625 141.304688 297.371094 143.894531 C 297.257812 141.25 298.773438 139 300.96875 137.421875 C 300.460938 134.660156 300.066406 132.074219 299 129.03125 C 297.988281 126.21875 296.300781 123.90625 294.21875 121.882812 L 294.21875 121.996094 C 293.542969 123.683594 289.214844 124.527344 287.417969 125.035156 C 282.585938 126.441406 276.34375 125.988281 270.5 124.921875 C 260.210938 123.851562 249.304688 120.699219 241.4375 115.6875 C 240.875 115.292969 239.132812 114.503906 238.566406 113.546875 C 237.671875 113.042969 236.996094 112.535156 236.996094 112.085938 C 237.050781 110.957031 239.242188 111.242188 240.199219 111.183594 C 243.121094 110.902344 245.878906 110.675781 248.859375 110.617188 L 247.453125 111.242188 C 246.496094 111.578125 244.414062 112.085938 242.335938 112.421875 C 241.71875 112.59375 241.101562 112.816406 240.59375 112.988281 C 248.011719 116.980469 256.21875 118.839844 264.316406 120.753906 C 272.015625 122.613281 278.253906 123.515625 286.070312 123.851562 L 287.699219 123.90625 C 290.34375 123.457031 293.097656 122.78125 293.714844 122.105469 C 293.882812 121.9375 293.941406 121.824219 293.996094 121.65625 L 293.941406 121.542969 C 293.265625 121.261719 292.589844 120.980469 291.917969 120.53125 C 291.296875 120.136719 290.285156 119.289062 289.273438 118.5625 C 288.320312 118.503906 287.417969 118.449219 286.746094 118.898438 C 286.628906 118.957031 286.574219 119.011719 286.464844 119.066406 C 285.058594 121.148438 282.695312 121.261719 278.480469 121.261719 C 275.277344 121.261719 258.414062 118.449219 253.523438 113.886719 C 253.351562 113.828125 253.242188 113.773438 253.183594 113.714844 C 250.824219 112.535156 251.78125 107.464844 252.285156 105.382812 C 252.511719 104.484375 252.679688 103.75 252.90625 103.1875 C 252.90625 102.511719 253.242188 102.0625 253.804688 101.835938 C 254.367188 101.386719 255.152344 101.273438 256.390625 101.5 L 256.277344 101.445312 C 256.164062 101.386719 256.21875 101.386719 256.109375 101.445312 C 254.589844 100.601562 249.871094 94.796875 248.125 92.941406 C 244.246094 88.664062 241.828125 85.566406 237.839844 82.410156 C 237.222656 82.074219 236.320312 81.566406 234.804688 80.554688 C 233.171875 79.429688 231.375 79.707031 229.519531 80.105469 C 228.675781 80.441406 227.832031 80.722656 226.988281 81.171875 C 222.097656 83.539062 214.285156 83.144531 208.886719 82.523438 C 202.257812 83.257812 193.878906 83.3125 188.257812 81.625 L 187.808594 80.273438 C 184.042969 82.1875 176.566406 86.296875 174.878906 88.039062 C 170.941406 92.042969 167.796875 101.445312 166.898438 107.074219 C 165.773438 114.28125 163.242188 117.996094 159.308594 123.90625 C 156.101562 128.753906 154.25 133.085938 152.058594 138.4375 C 150.988281 141.023438 150.429688 143.050781 149.527344 145.585938 C 147.785156 143.839844 154.082031 127.960938 155.152344 125.824219 C 158.523438 119.066406 161.332031 116.53125 163.019531 109.160156 C 158.800781 110.734375 154.867188 110.847656 150.3125 111.804688 C 149.976562 111.914062 149.582031 111.972656 149.191406 112.027344 C 149.808594 112.535156 150.203125 113.265625 150.371094 114.28125 C 149.132812 113.941406 149.304688 113.4375 147.953125 113.042969 C 145.589844 112.308594 145.144531 112.757812 143.230469 113.4375 C 143.230469 113.210938 143.230469 112.988281 143.34375 112.757812 C 141.039062 112.929688 138.734375 113.042969 136.824219 113.042969 C 135.417969 113.042969 134.125 113.152344 132.886719 113.265625 C 133.902344 114 134.632812 114.957031 134.179688 115.574219 C 133.675781 115.238281 133.5625 115.070312 132.886719 114.730469 C 129.796875 113.152344 129.457031 113.660156 126.535156 115.125 C 126.761719 114.675781 126.984375 114.167969 127.265625 113.773438 C 125.410156 114 123.5 114.28125 121.589844 114.503906 C 120.523438 114.617188 119.507812 114.730469 118.609375 114.789062 C 118.890625 115.183594 119.058594 115.6875 119.171875 116.363281 C 118.386719 115.910156 117.601562 115.238281 116.753906 115.125 C 113.550781 114.730469 113.609375 115.519531 111.246094 117.207031 C 111.359375 116.421875 111.582031 115.746094 111.921875 115.183594 L 109.785156 115.238281 C 108.265625 115.292969 105.90625 115.632812 103.375 116.136719 C 103.65625 116.25 103.9375 116.421875 104.222656 116.699219 C 104.722656 117.15625 104.613281 117.15625 104.667969 117.882812 C 104.105469 117.769531 103.601562 117.546875 102.980469 117.605469 C 100.734375 117.828125 101.242188 117.207031 99.722656 118.222656 C 99.21875 117.882812 99.328125 117.320312 99.777344 116.871094 C 97.25 117.433594 94.832031 118.109375 93.144531 118.671875 C 91.121094 120.644531 88.875 120.417969 87.410156 124.585938 C 86.003906 128.46875 84.378906 127.625 81.171875 130.382812 C 78.753906 132.464844 76.898438 135 75.605469 137.816406 C 74.707031 140.800781 74.3125 144.515625 73.976562 148.121094 C 77.070312 148.742188 84.488281 148.175781 86.738281 147.558594 C 92.078125 146.035156 105.683594 138.492188 106.355469 132.523438 C 106.75 129.089844 100.734375 129.144531 98.542969 128.976562 C 94.832031 128.640625 91.289062 128.753906 87.523438 128.359375 C 90.386719 128.074219 93.59375 127.90625 96.515625 127.90625 C 100.398438 127.90625 109.109375 127.734375 107.59375 133.480469 C 110.175781 129.144531 112.59375 125.652344 117.765625 123.121094 C 118.160156 122.894531 117.878906 122.894531 118.386719 122.78125 C 118.214844 123.683594 117.601562 123.90625 116.867188 124.585938 C 114.503906 126.777344 113.550781 127.960938 111.527344 130.550781 C 109.390625 133.253906 108.996094 134.097656 106.46875 136.015625 C 102.757812 142.320312 92.242188 148.234375 85.78125 149.414062 C 83.984375 149.75 77.238281 150.035156 73.808594 149.300781 L 73.75 149.695312 C 76.449219 150.035156 77.574219 150.089844 81.453125 149.921875 C 92.304688 149.527344 104.894531 148.964844 115.574219 147.332031 C 118.328125 146.933594 119.003906 146.597656 120.914062 146.597656 C 120.800781 142.148438 120.859375 137.703125 121.140625 135.394531 C 121.871094 138.210938 122.375 142.433594 122.488281 146.65625 L 122.601562 146.65625 L 122.488281 146.710938 C 122.546875 149.46875 122.488281 152.230469 122.265625 154.59375 C 128.449219 152.117188 135.417969 150.035156 142.050781 148.0625 C 145.144531 146.882812 148.347656 145.921875 151.664062 145.304688 C 153.464844 144.851562 155.488281 144.347656 157.34375 143.953125 C 168.359375 137.761719 185.617188 137.648438 197.589844 140.742188 C 205.910156 142.882812 216.421875 146.996094 222.097656 153.976562 C 224.175781 154.59375 226.089844 155.382812 226.3125 155.945312 C 226.597656 156.507812 226.429688 156.847656 225.976562 157.015625 C 233.566406 160.957031 239.242188 169.347656 240.929688 177.453125 C 241.324219 179.3125 241.324219 179.371094 241.324219 180.269531 C 242 180.890625 243.066406 182.578125 243.179688 182.917969 C 243.460938 183.648438 242.558594 184.097656 241.550781 184.433594 C 242.222656 185.957031 242.898438 187.363281 243.574219 188.773438 C 246.664062 195.753906 246.722656 207.464844 245.765625 215.007812 C 245.371094 218.050781 244.472656 221.9375 243.066406 225.035156 C 243.066406 225.707031 242.953125 226.210938 242.730469 227.285156 C 242.558594 227.902344 242.449219 228.523438 242.28125 229.085938 C 242.785156 227.902344 243.292969 226.605469 243.964844 225.257812 C 243.628906 230.210938 241.71875 235.5625 238.34375 239.445312 C 237.445312 240.964844 236.601562 242.261719 236.097656 242.882812 C 233.511719 245.863281 231.09375 246.988281 228.167969 248.003906 C 233.789062 247.046875 237.277344 246.59375 242.558594 243.046875 C 247.226562 239.898438 251.105469 235.109375 253.296875 229.761719 C 252.511719 229.984375 251.554688 229.984375 250.375 229.816406 C 242.617188 228.464844 249.363281 220.074219 251.160156 220.808594 C 248.96875 222.894531 245.652344 227.566406 250.65625 228.074219 C 252.171875 228.183594 253.410156 228.015625 254.199219 227.453125 C 254.476562 226.492188 254.757812 225.59375 254.929688 224.636719 C 254.871094 224.355469 254.757812 223.960938 254.589844 223.566406 C 253.972656 221.9375 253.183594 221.429688 251.667969 220.753906 C 253.183594 220.46875 254.476562 221.316406 255.320312 222.5 C 255.996094 217.882812 256.445312 213.375 256.839844 208.703125 C 257.34375 211.347656 257.234375 212.925781 257.121094 215.574219 C 256.949219 219.121094 256.839844 222.214844 256.277344 225.3125 C 256.332031 226.382812 256.109375 227.453125 255.542969 228.351562 C 255.097656 229.816406 254.535156 231.28125 253.75 232.800781 C 249.082031 242.203125 238.007812 249.46875 227.441406 248.285156 C 226.597656 248.566406 225.695312 248.847656 224.742188 249.1875 C 222.4375 250.027344 219.851562 252.285156 217.9375 253.972656 C 218.332031 254.253906 219.0625 254.253906 219.90625 254.367188 C 224.96875 254.929688 230.8125 254.480469 236.210938 254.875 C 246.886719 254.816406 258.75 254.984375 262.628906 255.15625 C 265.777344 255.269531 268.925781 255.378906 272.015625 255.546875 L 272.410156 255.492188 C 275.617188 254.761719 278.761719 254.308594 282.023438 253.859375 C 283.03125 253.523438 283.992188 253.128906 284.886719 252.621094 C 286.015625 251.945312 287.535156 251.046875 289.214844 250.027344 L 289.332031 249.863281 L 290.003906 248.230469 L 289.890625 249.636719 C 293.433594 247.441406 297.257812 244.851562 299 242.597656 C 299.449219 240.796875 299.839844 238.039062 300.125 234.941406 C 298.328125 236.125 295.742188 238.039062 293.660156 238.488281 C 291.972656 238.882812 291.972656 238.65625 291.972656 237.304688 C 292.140625 231.394531 292.589844 225.59375 292.648438 219.570312 C 292.757812 210.222656 292.984375 201.042969 293.207031 191.703125 C 293.320312 187.25 293.265625 178.296875 293.941406 174.355469 C 294.613281 178.523438 294.445312 188.65625 294.5 193.332031 C 294.671875 207.800781 294.5 220.527344 293.152344 234.996094 C 293.097656 235.503906 292.929688 236.855469 292.929688 237.757812 C 295.742188 237.417969 297.257812 236.011719 300.125 234.941406 C 300.855469 227.339844 301.191406 217.542969 301.359375 213.769531 C 301.921875 204.03125 302.539062 192.035156 302.148438 182.015625 C 301.414062 180.664062 300.519531 179.085938 299.730469 177.566406 L 299.5625 177.679688 L 299.730469 177.511719 C 299.390625 176.949219 299.113281 176.386719 298.886719 175.878906 C 296.191406 170.136719 296.074219 160.339844 297.03125 152.90625 C 297.03125 152.339844 297.085938 151.835938 297.257812 151.441406 C 297.425781 150.425781 297.59375 149.414062 297.761719 148.511719 L 297.820312 148.628906 C 297.820312 148.511719 297.875 148.34375 297.933594 148.234375 C 296.300781 148.34375 294.785156 148.234375 293.941406 147.953125 C 293.039062 147.667969 291.351562 145.25 292.140625 144.628906 C 293.601562 143.390625 295.515625 142.601562 297.3125 142.148438 C 296.074219 143.105469 294.726562 144.289062 293.433594 145.25 C 294.5 147.046875 294.390625 146.429688 297.371094 146.375 C 298.832031 146.375 300.347656 146.429688 301.753906 146.148438 L 301.808594 145.921875 L 301.808594 146.148438 C 303.382812 145.867188 304.789062 145.191406 305.855469 143.839844 L 305.96875 143.726562 C 305.96875 143.503906 305.96875 143.277344 305.914062 143.105469 C 302.148438 145.585938 300.460938 146.148438 295.796875 144.628906 C 298.210938 144.011719 299.449219 144.234375 301.699219 143.390625 C 301.808594 143.390625 305.96875 141.757812 306.191406 141.8125 C 307.148438 142.039062 306.757812 144.234375 306.082031 144.402344 C 305.578125 145.8125 304 146.824219 302.089844 147.445312 C 303.160156 151.890625 304.171875 152.679688 306.363281 155.269531 C 306.191406 154.652344 306.191406 154.03125 306.25 153.1875 C 306.589844 149.414062 309.34375 147.953125 309.453125 142.828125 C 309.453125 141.589844 308.105469 138.941406 306.476562 139.164062 C 304.453125 139.449219 302.710938 141.195312 301.078125 142.261719 C 303.269531 139.335938 307.09375 135.675781 310.242188 140.238281 C 312.152344 142.996094 310.972656 146.375 309.34375 149.019531 Z M 109.390625 182.804688 C 103.152344 188.882812 99.609375 192.320312 96.011719 200.539062 C 85.667969 223.960938 94.101562 255.433594 116.699219 268.328125 C 145.367188 284.714844 184.15625 270.695312 184.769531 234.152344 C 184.882812 227.398438 183.816406 223.117188 182.75 216.640625 C 183.144531 217.597656 183.480469 218.558594 183.761719 219.570312 C 183.589844 218.894531 183.480469 218.21875 183.371094 217.488281 C 184.605469 220.753906 185.390625 224.1875 185.898438 227.621094 C 190.167969 255.886719 173.195312 278.296875 144.523438 280.660156 C 108.265625 283.585938 83.8125 252.734375 86.851562 218.558594 C 88.085938 204.875 94.886719 189.617188 106.804688 182.238281 C 100.339844 188.488281 96.628906 192.148438 92.863281 200.652344 C 82.074219 225.089844 90.898438 257.914062 114.503906 271.429688 C 138.90625 285.390625 170.441406 278.128906 181.457031 254.195312 C 175.214844 267.035156 162.511719 275.820312 145.480469 277.167969 C 110.796875 279.988281 87.355469 250.425781 90.222656 217.65625 C 91.402344 204.59375 97.921875 189.953125 109.390625 182.804688 " fill-opacity="1" fill-rule="evenodd"/></svg>